<?xml version="1.0" encoding="UTF-8"?>
<svg version="1.1" xmlns="http://www.w3.org/2000/svg" width="590" height="590">
<path d="M0 0 C3.14529741 0.0161122 6.28931064 0.00001033 9.43457031 -0.01904297 C27.84641361 -0.03835609 46.13788881 1.69038388 64.14550781 5.64111328 C65.12076416 5.8516333 66.09602051 6.06215332 67.10083008 6.27905273 C117.41790436 17.47719075 163.63796476 41.1246583 201.57910156 76.04345703 C203.82109737 78.09435426 206.0934181 80.09588862 208.39550781 82.07861328 C214.85602988 87.71018853 220.59462117 93.87191782 226.14550781 100.39111328 C226.87382813 101.23029297 227.60214844 102.06947266 228.35253906 102.93408203 C269.9694643 151.67765359 298.06449832 216.82486917 298.34863281 281.46142578 C298.35433289 282.50015839 298.36003296 283.53889099 298.36590576 284.60910034 C298.37530285 286.80254111 298.38186853 288.99599565 298.38574219 291.18945312 C298.39533947 294.45876592 298.42636916 297.72741914 298.45800781 300.99658203 C298.5521431 319.67238887 296.90472381 338.1213339 292.89550781 356.39111328 C292.6842627 357.36781982 292.47301758 358.34452637 292.25537109 359.35083008 C281.72216 406.61417247 260.20755055 450.99636206 228.14550781 487.39111328 C227.51 488.12587891 226.87449219 488.86064453 226.21972656 489.61767578 C225.10545677 490.90356874 223.98456042 492.18375575 222.85644531 493.45751953 C221.64180563 494.83022876 220.43993383 496.21428293 219.24707031 497.60595703 C208.4875628 509.94539222 196.20122304 520.57041055 183.14550781 530.39111328 C182.55833984 530.8405127 181.97117187 531.28991211 181.36621094 531.75292969 C135.17280712 567.10016242 75.62230899 590.33687225 17.07519531 590.59423828 C16.03646271 590.59993835 14.9977301 590.60563843 13.92752075 590.61151123 C11.73407999 590.62090832 9.54062544 590.627474 7.34716797 590.63134766 C4.07785518 590.64094493 0.80920196 590.67197463 -2.45996094 590.70361328 C-21.13576777 590.79774857 -39.58471281 589.15032928 -57.85449219 585.14111328 C-58.83119873 584.92986816 -59.80790527 584.71862305 -60.81420898 584.50097656 C-108.08355463 573.96642757 -152.45093011 552.44874449 -188.85449219 520.39111328 C-189.56605469 519.77880859 -190.27761719 519.16650391 -191.01074219 518.53564453 C-192.97642129 516.8398435 -194.91778448 515.11992581 -196.85449219 513.39111328 C-197.75554687 512.59447266 -198.65660156 511.79783203 -199.58496094 510.97705078 C-211.66506823 500.18868952 -222.09255881 488.29243953 -231.85449219 475.39111328 C-232.30679199 474.80104492 -232.7590918 474.21097656 -233.22509766 473.60302734 C-259.66293254 439.04707845 -277.42581001 398.82939093 -286.60449219 356.39111328 C-286.79124512 355.54009033 -286.97799805 354.68906738 -287.17041016 353.81225586 C-290.89081736 335.52610349 -292.35847961 317.1695375 -292.24560547 298.53662109 C-292.22949327 295.39132368 -292.24559514 292.24731046 -292.26464844 289.10205078 C-292.28396156 270.69020748 -290.55522159 252.39873229 -286.60449219 234.39111328 C-286.39397217 233.41585693 -286.18345215 232.44060059 -285.96655273 231.43579102 C-274.76841472 181.11871673 -251.12094717 134.89865633 -216.20214844 96.95751953 C-214.1512512 94.71552372 -212.14971685 92.44320299 -210.16699219 90.14111328 C-204.53541694 83.68059121 -198.37368765 77.94199992 -191.85449219 72.39111328 C-191.0153125 71.66279297 -190.17613281 70.93447266 -189.31152344 70.18408203 C-151.60249252 37.98837149 -106.2360552 16.10522763 -57.85449219 5.64111328 C-57.00346924 5.45436035 -56.15244629 5.26760742 -55.27563477 5.07519531 C-36.98948239 1.35478811 -18.6329164 -0.11287414 0 0 Z " fill="#231F20" transform="translate(291.8544921875,-0.39111328125)"/>
<path d="M0 0 C12.71425362 11.14906655 23.50996613 25.4416312 28 42 C28.0314282 43.99975305 28.03554763 46.00031593 28 48 C25.94010417 48.8828125 23.88020833 49.765625 21.8203125 50.6484375 C21.15874146 50.9319809 20.49717041 51.21552429 19.81555176 51.50765991 C16.00132101 53.14238509 12.18700478 54.77691039 8.37255859 56.41113281 C0.72343592 59.68847299 -6.92518081 62.96696614 -14.57098389 66.25204468 C-18.83860021 68.08560296 -23.10668383 69.91807151 -27.375 71.75 C-28.24169312 72.12199524 -29.10838623 72.49399048 -30.00134277 72.8772583 C-44.96485718 79.29683965 -59.96219198 85.63428844 -74.97103882 91.947052 C-88.9518408 97.82953896 -102.87986259 103.82029647 -116.73681641 109.98925781 C-118.54351807 110.78928223 -118.54351807 110.78928223 -120.38671875 111.60546875 C-121.43045654 112.07106201 -122.47419434 112.53665527 -123.54956055 113.01635742 C-126 114 -126 114 -128 114 C-129.27601331 111.50252977 -130.54586171 109.00222064 -131.8125 106.5 C-132.34713867 105.45585937 -132.34713867 105.45585937 -132.89257812 104.390625 C-142.92663372 84.50662493 -144.39581193 60.40214529 -137.72753906 39.08056641 C-133.61829259 27.32922466 -127.03897714 17.40986231 -119 8 C-118.42765625 7.32582031 -117.8553125 6.65164062 -117.265625 5.95703125 C-87.03433623 -26.74364497 -33.55691745 -27.21744942 0 0 Z " fill="#FDFDFD" transform="translate(224,235)"/>
<path d="M0 0 C11.22 0 22.44 0 34 0 C34 55.11 34 110.22 34 167 C35.65 167.33 37.3 167.66 39 168 C42.80452906 169.3199534 46.5195104 170.85978829 50.25 172.375 C51.26835937 172.77460938 52.28671875 173.17421875 53.3359375 173.5859375 C54.30273438 173.9778125 55.26953125 174.3696875 56.265625 174.7734375 C57.15024414 175.12841309 58.03486328 175.48338867 58.94628906 175.84912109 C61 177 61 177 62 180 C61.17337424 182.43913472 60.2818913 184.72154774 59.25390625 187.07421875 C58.96394272 187.7580513 58.67397919 188.44188385 58.37522888 189.1464386 C57.44659001 191.33073261 56.50475875 193.50905152 55.5625 195.6875 C54.93076383 197.16694361 54.29989349 198.64675727 53.66992188 200.12695312 C52.12329731 203.75567311 50.56481692 207.3790901 49 211 C41.88229365 208.70898827 34.93211854 206.11401407 28 203.3125 C26.97132813 202.91611328 25.94265625 202.51972656 24.8828125 202.11132812 C14.76287431 197.99768913 7.57323812 192.55080736 2.97265625 182.4921875 C0.83354148 177.01124284 -0.24907333 172.60781808 -0.24050903 166.67276001 C-0.24221788 165.95709535 -0.24392673 165.24143069 -0.24568737 164.50407922 C-0.24896849 162.11801313 -0.2380015 159.73223138 -0.22705078 157.34619141 C-0.22648637 155.63104255 -0.22680381 153.91589321 -0.22793579 152.20074463 C-0.22850913 147.55244537 -0.21675779 142.90424954 -0.20278788 138.25597429 C-0.19027746 133.39529477 -0.18910977 128.53461282 -0.18673706 123.67391968 C-0.18052322 114.47302835 -0.16411366 105.2721846 -0.14403808 96.07131422 C-0.12167613 85.59496027 -0.1106849 75.11860405 -0.10064721 64.64223218 C-0.07974737 43.09478901 -0.04307229 21.54741105 0 0 Z " fill="#FAFAFA" transform="translate(268,177)"/>
<path d="M0 0 C8.00022602 0.60247487 15.76276936 1.9979424 23.625 3.5625 C24.81996094 3.79646484 26.01492188 4.03042969 27.24609375 4.27148438 C30.16489275 4.84356898 33.0828012 5.41982075 36 6 C33.70974962 26.76790151 22.28352216 44.48721312 6.5625 57.875 C-13.84945062 73.70585943 -35.56683332 79.01463113 -61 77 C-66.48806863 76.17440532 -71.73568731 74.75738605 -77 73 C-74.91969601 64.98908358 -72.46670598 57.15032706 -69.8125 49.3125 C-69.26045898 47.66991211 -69.26045898 47.66991211 -68.69726562 45.99414062 C-67.80095124 43.32847837 -66.90182617 40.6638015 -66 38 C-65.20335937 38.14074951 -64.40671875 38.28149902 -63.5859375 38.42651367 C-62.52632813 38.60931885 -61.46671875 38.79212402 -60.375 38.98046875 C-58.80878906 39.25346802 -58.80878906 39.25346802 -57.2109375 39.53198242 C-42.29162668 41.70658087 -29.60007716 38.14303256 -17.19140625 29.78125 C-7.90328537 22.64025317 -2.29235845 11.25339601 0 0 Z " fill="#EB4324" transform="translate(470,311)"/>
<path d="M0 0 C3 0 3 0 4.5078125 1.3984375 C5.04148437 2.05070313 5.57515625 2.70296875 6.125 3.375 C8.87855218 6.66412681 11.67842237 9.88661013 14.5625 13.0625 C18.10696445 16.98932963 21.57917903 20.96518552 25 25 C23.62400437 28.07734984 22.01395144 30.20053841 19.6875 32.625 C10.99806221 42.34630853 8.29495907 53.7361873 8.625 66.5078125 C9.4057734 79.49653564 15.61920537 92.07079723 25 101 C23.28332547 105.19861361 20.33439912 108.26585435 17.375 111.625 C12.43176332 117.30658977 7.64520159 123.07053679 3 129 C-6.31103318 124.73833406 -11.57913333 115.27395439 -17 107 C-17.42410156 106.37222656 -17.84820312 105.74445313 -18.28515625 105.09765625 C-28.59182251 88.69879051 -30.97421287 64.40356002 -26.81958008 45.58251953 C-22.20352209 27.19385135 -13.25211387 13.25211387 0 0 Z " fill="#02A2DD" transform="translate(363,238)"/>
<path d="M0 0 C1.22009766 -0.01998047 2.44019531 -0.03996094 3.69726562 -0.06054688 C12.31254605 -0.05596672 19.49631508 1.47516422 27.5625 4.4375 C28.32723633 4.69934082 29.09197266 4.96118164 29.87988281 5.23095703 C50.49161496 12.49951502 67.03434623 27.30688882 76.9375 46.75 C77.82385035 48.64055338 78.70035319 50.53578711 79.5625 52.4375 C79.89121094 53.09492188 80.21992188 53.75234375 80.55859375 54.4296875 C82.75420386 58.9889927 83.23507812 63.45842938 83.5625 68.4375 C80.1522354 70.71100973 77.96677391 70.96842173 73.9375 71.5 C69.92759915 71.71123479 69.92759915 71.71123479 66.5625 73.4375 C63.70721393 73.837883 60.86513513 74.1893227 58 74.5 C56.79053711 74.63631836 56.79053711 74.63631836 55.55664062 74.77539062 C53.55902623 74.99997449 51.5608144 75.21923236 49.5625 75.4375 C49.21058594 74.53128906 48.85867188 73.62507813 48.49609375 72.69140625 C43.08297116 59.33526826 35.18542476 47.37531013 21.53515625 41.2421875 C20.88417969 40.97664063 20.23320312 40.71109375 19.5625 40.4375 C18.53962891 40.00824219 18.53962891 40.00824219 17.49609375 39.5703125 C6.23361522 35.08241783 -5.80788337 35.4972809 -17.4375 38.4375 C-19.50618894 32.95393052 -21.53389833 27.45867554 -23.5 21.9375 C-23.75587891 21.22980469 -24.01175781 20.52210938 -24.27539062 19.79296875 C-25.95925388 15.05737389 -27.48680389 10.37897131 -28.4375 5.4375 C-21.86103247 -1.13896753 -8.61064516 -0.04987735 0 0 Z " fill="#FDF001" transform="translate(421.4375,215.5625)"/>
<path d="M0 0 C10.57616012 4.42496814 18.81080402 17.28582306 26 26 C10.59262832 41.70695946 -10.62848386 49.7429828 -32.37670898 50.23242188 C-49.14866465 50.36730189 -64.60918347 46.94667165 -79 38 C-79 33.98128578 -78.80399683 33.18542306 -76.8046875 29.98828125 C-76.33844971 29.23401855 -75.87221191 28.47975586 -75.3918457 27.70263672 C-74.64100708 26.51951904 -74.64100708 26.51951904 -73.875 25.3125 C-73.37379639 24.50828613 -72.87259277 23.70407227 -72.35620117 22.87548828 C-69.0038683 17.51848314 -65.59993401 12.19484148 -62 7 C-59.63250338 7.48464048 -57.69528137 8.14544473 -55.50390625 9.19140625 C-43.56055146 14.75862741 -29.18858583 15.37157798 -16.75 10.875 C-10.66902603 8.0994189 -4.75121603 4.75121603 0 0 Z " fill="#FCFCFC" transform="translate(203,338)"/>
<path d="M0 0 C0.66515625 0.48082031 1.3303125 0.96164062 2.015625 1.45703125 C3.6875 2.75 3.6875 2.75 6 5 C6 5.99 6 6.98 6 8 C2.36063991 9.56336226 -1.27911848 11.12579364 -4.91918945 12.6875 C-6.73863635 13.46830197 -8.55780076 14.24976208 -10.37695312 15.03125 C-19.73793546 19.04668478 -29.12187539 23.00599952 -38.5118103 26.95318604 C-41.85762206 28.36081282 -45.20186284 29.77214786 -48.54597473 31.18380737 C-51.86495472 32.58482936 -55.18442455 33.98468871 -58.50390625 35.38452148 C-60.19677517 36.09865916 -61.88947821 36.81319016 -63.58203125 37.52807617 C-66.07508343 38.58095566 -68.5687299 39.63241602 -71.0625 40.68359375 C-71.81861572 41.0033165 -72.57473145 41.32303925 -73.35375977 41.65245056 C-76.21600999 42.85768991 -79.05241012 44.01747004 -82 45 C-83.09770563 32.12025392 -79.87153749 19.44328953 -71.875 9.171875 C-52.56997122 -13.18978334 -24.44394045 -17.77378023 0 0 Z " fill="#252123" transform="translate(200,262)"/>
</svg>
