<?xml version="1.0" encoding="UTF-8"?>
<svg version="1.1" xmlns="http://www.w3.org/2000/svg" width="800" height="284">
<path d="M0 0 C1.57124487 0.38420364 3.14036147 0.77723418 4.70703125 1.1796875 C5.4748291 1.31213867 6.24262695 1.44458984 7.03369141 1.58105469 C17.67561905 3.4581062 24.17054759 10.23548356 31.5 17.75 C32.88892236 19.15265518 34.27785014 20.55530505 35.66709614 21.95763969 C37.59420645 23.90646404 39.51444483 25.86198606 41.43450928 27.81774902 C44.80557815 31.25096586 48.18152215 34.67932368 51.56648254 38.09884644 C53.36354674 39.91563247 55.15565945 41.73733295 56.94218445 43.56448364 C57.75685684 44.38899017 58.57152924 45.2134967 59.41088867 46.06298828 C60.12178146 46.78737091 60.83267426 47.51175354 61.56510925 48.25808716 C65.0288225 51.3655171 68.36514144 53.4930975 73.01953125 54.0546875 C73.71691406 54.15523437 74.41429687 54.25578125 75.1328125 54.359375 C84.34724736 53.71618228 89.33961861 48.19345498 95.4296875 41.875 C96.81162029 40.4750073 98.19355819 39.0750196 99.57578945 37.67532158 C101.49763031 35.72294844 103.40773528 33.75928901 105.31793213 31.79553223 C108.66020521 28.36289706 112.0172342 24.94475316 115.37974548 21.5319519 C117.16446382 19.71821464 118.94338212 17.89874624 120.71559143 16.07278442 C126.71204648 9.95640695 132.22232637 4.44296444 140.70703125 2.1796875 C141.42842285 1.92525879 142.14981445 1.67083008 142.89306641 1.40869141 C150.06337867 -0.90453936 157.64706531 -2.02396845 164.70703125 1.1796875 C171.33630954 5.5250755 176.85817166 11.31101737 182.33203125 16.9921875 C183.41455673 18.1144725 183.41455673 18.1144725 184.51895142 19.25942993 C195.93002652 31.25176231 206.21899193 42.84698108 207.08203125 60.1796875 C206.459568 73.76070393 200.93379739 83.62076322 191.671875 93.03515625 C188.97730895 95.78185247 186.46138895 98.63086457 183.98989868 101.57969666 C168.1443752 120.34058449 168.1443752 120.34058449 158.234375 121.609375 C145.8453364 121.78442523 134.88968397 118.47521506 125.82739258 109.82006836 C124.13537094 108.10722409 122.45643199 106.38138233 120.7890625 104.64453125 C119.4115366 103.24532245 118.03400248 101.84612164 116.65599346 100.44738865 C114.74910815 98.50579348 112.85385861 96.55304558 110.95880127 94.59991455 C107.63324637 91.17394851 104.29782416 87.75774106 100.94963074 84.35389709 C99.17408971 82.54653823 97.40619619 80.73162485 95.64717102 78.90818787 C87.75742924 70.81945875 87.75742924 70.81945875 77.26953125 67.2421875 C76.59019531 67.15066406 75.91085938 67.05914062 75.2109375 66.96484375 C65.81786187 67.77080188 60.85724418 73.42763306 54.65234375 79.921875 C53.70273652 80.89356176 52.7516057 81.86376165 51.79904175 82.83255005 C48.28909654 86.4088606 44.80694235 90.01183038 41.32409668 93.61450195 C38.37459142 96.66340183 35.4145518 99.70133481 32.4403038 102.72610855 C31.0640284 104.1343386 29.70341517 105.55782205 28.34329224 106.98165894 C18.92969444 116.57724134 8.70750293 121.25383325 -4.67651367 122.50073242 C-18.16374684 122.16654665 -26.23808421 112.64785122 -35.10546875 103.4921875 C-35.87003387 102.70497314 -36.634599 101.91775879 -37.42233276 101.10668945 C-50.69735338 87.22565121 -58.98467125 75.70554553 -58.62890625 56.0625 C-57.73444588 36.8205138 -37.93478467 19.61351278 -24.671875 7.0703125 C-17.01389419 0.1235002 -10.28073435 -1.73869815 0 0 Z " fill="#32BBAC" transform="translate(58.29296875,90.8203125)"/>
<path d="M0 0 C5.35439363 4.04839737 9.97120362 8.91794592 14.68652344 13.67654419 C15.81658132 14.80712168 16.94716002 15.93717881 18.07823181 17.06674194 C20.43020431 19.41880355 22.77697721 21.77589117 25.11987305 24.13699341 C28.12758886 27.16756483 31.14643856 30.18675318 34.1689539 33.20255661 C36.49667855 35.5269495 38.81940666 37.85628167 41.14053154 40.18726349 C42.25281605 41.30340128 43.36645718 42.41818881 44.48146248 43.53160858 C46.03015472 45.07993181 47.57221561 46.63455933 49.11254883 48.19119263 C49.99141251 49.0746637 50.87027618 49.95813477 51.77577209 50.86837769 C53.65136719 53.00466919 53.65136719 53.00466919 53.65136719 55.00466919 C52.63558594 55.07943481 51.61980469 55.15420044 50.57324219 55.23123169 C49.18249784 55.36278859 47.79187877 55.49567444 46.40136719 55.62966919 C45.73878906 55.67478638 45.07621094 55.71990356 44.39355469 55.76638794 C32.0462157 57.04771557 23.22100825 64.56784288 14.92480469 73.18045044 C13.96166779 74.1573642 12.99708881 75.13285809 12.03115845 76.10700989 C9.5230106 78.643386 7.03304544 81.19684234 4.54724121 83.75509644 C1.50629796 86.87841535 -1.55455468 89.98220581 -4.61406517 93.08732128 C-6.98918414 95.4980958 -9.35948065 97.91296991 -11.72134399 100.33677673 C-12.56337372 101.19824814 -13.40540344 102.05971954 -14.27294922 102.94729614 C-15.38447861 104.08930229 -15.38447861 104.08930229 -16.51846313 105.25437927 C-18.73392751 107.37314727 -19.95728404 107.93012657 -22.97363281 108.50466919 C-30.82850073 107.34098505 -37.36635527 98.09943831 -42.75878906 92.62185669 C-44.34133661 91.02667092 -45.92402305 89.43162293 -47.50683594 87.83670044 C-49.96623713 85.35246177 -52.42399162 82.86663612 -54.87915039 80.37820435 C-57.27207912 77.95496725 -59.67127802 75.53807671 -62.07128906 73.12185669 C-62.79751968 72.38216644 -63.52375031 71.6424762 -64.27198792 70.88037109 C-76.32153709 58.77219196 -87.66488117 55.42333297 -104.34863281 55.00466919 C-102.80079378 51.32503082 -100.56746416 48.96422666 -97.76635742 46.1477356 C-97.30259705 45.67886429 -96.83883667 45.20999298 -96.36102295 44.72691345 C-94.82947219 43.18148907 -93.29063003 41.6435809 -91.75097656 40.10623169 C-90.67658428 39.02794878 -89.60241478 37.94944385 -88.52845764 36.87072754 C-86.2747309 34.60954152 -84.01717139 32.35226644 -81.75708008 30.09744263 C-78.87958604 27.22571613 -76.01355802 24.34284862 -73.15061092 21.4566288 C-70.93292364 19.22410627 -68.70823692 16.99865944 -66.48156929 14.77509689 C-65.42321989 13.71623831 -64.36719406 12.65505142 -63.31367302 11.5913887 C-45.0959084 -6.78002325 -23.41915375 -15.75295369 0 0 Z " fill="#32BBAD" transform="translate(157.3486328125,26.995330810546875)"/>
<path d="M0 0 C5.15045541 1.26047153 7.86841936 4.15480091 11.5324707 7.86450195 C12.21300507 8.5336261 12.89353943 9.20275024 13.59469604 9.89215088 C15.78173305 12.06307144 17.93800531 14.2614653 20.09106445 16.46606445 C21.70975568 18.10713285 23.3289104 19.74774417 24.94848633 21.38793945 C27.46538805 23.94193753 29.97907203 26.49881798 32.48486328 29.0637207 C34.92769071 31.56129004 37.38325254 34.04575104 39.84106445 36.52856445 C40.57884628 37.29012848 41.31662811 38.0516925 42.07676697 38.83633423 C52.14780196 48.95713901 63.43419542 52.99460837 77.5324707 53.86450195 C75.9869993 57.53046941 73.76888545 59.89310415 70.98193359 62.70556641 C70.5213858 63.17283142 70.06083801 63.64009644 69.58633423 64.121521 C68.06454529 65.66227678 66.53535189 67.19540835 65.00512695 68.7277832 C63.93559977 69.80374438 62.86622043 70.87985253 61.79698181 71.95610046 C59.55180861 74.21324688 57.30254118 76.46622239 55.05078125 78.71679688 C52.18962931 81.57774682 49.34241927 84.45213536 46.49871159 87.33041096 C44.29119787 89.56036469 42.07444665 91.78096366 39.85516167 93.99919701 C38.80314614 95.05354761 37.75431243 96.11108433 36.70897102 97.17205238 C25.66950718 108.3608464 14.8295286 116.62196798 -1.3425293 117.30200195 C-18.99324221 116.77477287 -28.93316122 106.70974728 -40.6237793 94.9387207 C-41.7778325 93.78347343 -42.93225778 92.62859774 -44.08703613 91.47407532 C-46.4904213 89.06913532 -48.89043656 86.66090095 -51.2878418 84.25 C-54.36740797 81.15332057 -57.4536414 78.06339012 -60.5421524 74.97563457 C-62.91866139 72.59885461 -65.29256305 70.21948533 -67.66557312 67.83921242 C-68.80372388 66.69787313 -69.94248693 65.5571441 -71.0818634 64.41702843 C-72.66413078 62.83260647 -74.24307028 61.24494572 -75.82104492 59.65625 C-76.7206897 58.75279343 -77.62033447 57.84933685 -78.54724121 56.91850281 C-80.4675293 54.86450195 -80.4675293 54.86450195 -80.4675293 53.86450195 C-79.51233398 53.8387207 -78.55713867 53.81293945 -77.57299805 53.78637695 C-55.42623207 52.81483388 -43.13952117 40.80304436 -28.32299805 25.5715332 C-27.6172464 24.84860077 -26.91149475 24.12566833 -26.18435669 23.38082886 C-21.79577853 18.88382402 -21.79577853 18.88382402 -17.43554688 14.359375 C-15.28903238 12.12220616 -13.12098726 9.90795506 -10.94799805 7.6965332 C-10.29993698 7.00920609 -9.65187592 6.32187897 -8.98417664 5.61372375 C-5.99778297 2.60927781 -4.17327539 1.040454 0 0 Z " fill="#32BCAC" transform="translate(133.467529296875,167.135498046875)"/>
<path d="M0 0 C2.00447165 0.03195083 4.00870762 0.05212047 6.0133667 0.0680542 C9.91917546 0.10158457 13.82380928 0.16104635 17.72918701 0.22723389 C19.49378769 0.23848801 19.49378769 0.23848801 21.29403687 0.24996948 C38.73005999 0.65318537 53.28096496 7.46890989 65.37762451 19.90692139 C79.46065005 35.50221812 80.90703782 54.18148852 80.82366943 74.16473389 C80.81515835 77.26957573 80.84401621 80.37257245 80.87567139 83.47723389 C80.9491394 104.31014408 77.52280388 122.84515258 62.31121826 138.20770264 C51.01147799 148.60466738 37.25311787 154.2515184 21.9520874 154.16571045 C21.16394653 154.16921509 20.37580566 154.17271973 19.56378174 154.17633057 C16.99252176 154.18504144 14.42154288 154.17934087 11.85028076 154.17254639 C10.05189461 154.17389515 8.25350881 154.17583745 6.4551239 154.17834473 C2.70391332 154.18128071 -1.04720149 154.1770441 -4.79840088 154.16766357 C-9.61272929 154.15621209 -14.42683609 154.16287391 -19.24115658 154.1748085 C-22.94622992 154.18201928 -26.65125025 154.17974379 -30.35632515 154.17455292 C-32.13259469 154.17321723 -33.90886902 154.17486131 -35.68513298 154.17951202 C-38.15775305 154.18457069 -40.6300074 154.17687919 -43.1026001 154.16571045 C-43.83867996 154.16975891 -44.57475983 154.17380737 -45.33314514 154.17797852 C-50.39383431 154.13546256 -50.39383431 154.13546256 -52.62237549 151.90692139 C-52.99737549 148.96942139 -52.99737549 148.96942139 -52.62237549 145.90692139 C-50.22957955 143.34702776 -48.76953908 142.92319919 -45.26092529 142.53511047 C-43.9068734 142.52091253 -42.55259044 142.52301002 -41.19854736 142.5380249 C-40.45646027 142.53425842 -39.71437317 142.53049194 -38.94979858 142.52661133 C-37.34019736 142.52018339 -35.73055818 142.52050467 -34.12095642 142.52679634 C-31.56310875 142.53592765 -29.00599109 142.52565634 -26.44818115 142.51017761 C-19.17650495 142.47015705 -11.90488572 142.46886088 -4.63311768 142.47113037 C-0.18036122 142.47118184 4.27200577 142.45182372 8.72465515 142.4217968 C11.22614898 142.41107506 13.7268648 142.4230452 16.22833252 142.43562317 C31.05066986 142.40070064 43.28294285 138.96131017 54.63153076 128.91082764 C65.11487579 118.06941769 68.69324118 104.25951915 68.67840576 89.60614014 C68.68483345 88.16969902 68.68483345 88.16969902 68.69139099 86.70423889 C68.69710071 84.68985785 68.69765953 82.67545619 68.69329834 80.66107178 C68.69014384 77.61309855 68.71362149 74.56610279 68.73895264 71.51824951 C68.79776999 53.5557966 66.63733386 38.67397852 53.82684326 25.16473389 C50.01258974 21.64856398 46.03160164 19.166615 41.37762451 16.90692139 C40.58227295 16.50602295 39.78692139 16.10512451 38.96746826 15.69207764 C33.26232939 13.21426617 27.87270457 12.57098629 21.74090576 12.31317139 C20.91319672 12.27443405 20.08548767 12.23569672 19.23269653 12.19578552 C10.82218995 11.83131869 2.41344297 11.72079112 -6.00421143 11.72161865 C-8.51772327 11.71940345 -11.0308138 11.70105084 -13.54425049 11.68231201 C-31.25598719 11.61930678 -48.18117288 13.05477547 -61.62237549 25.90692139 C-70.16288789 35.26638703 -74.86420068 46.7235101 -74.88066101 59.37182617 C-74.88433672 60.07821031 -74.88801242 60.78459445 -74.89179951 61.51238418 C-74.90169857 63.85523527 -74.89764513 66.19784522 -74.89361572 68.54071045 C-74.89800722 70.22996267 -74.90331091 71.91921272 -74.90945435 73.60845947 C-74.92091861 77.23371961 -74.9264111 80.85892157 -74.92733574 84.48419952 C-74.92928134 90.21563504 -74.9473591 95.9469505 -74.96809387 101.67834473 C-75.01720471 115.90749821 -75.04820213 130.13668403 -75.06939697 144.36590576 C-75.08590992 155.43808217 -75.10867599 166.51015492 -75.15241772 177.5822618 C-75.17421654 183.28135226 -75.18225 188.98024588 -75.18002498 194.67937517 C-75.18168907 198.21957176 -75.19572017 201.75963914 -75.21323776 205.29978943 C-75.2188467 206.94291496 -75.21931384 208.58606718 -75.21430016 210.22919464 C-75.20817924 212.46974372 -75.22035198 214.70947351 -75.23710632 216.94995117 C-75.23911765 218.2042606 -75.24112898 219.45857002 -75.24320126 220.75088882 C-75.64995331 224.13646365 -76.16890146 225.56925462 -78.62237549 227.90692139 C-81.68487549 228.28192139 -81.68487549 228.28192139 -84.62237549 227.90692139 C-87.48394234 225.04535453 -86.87928108 223.08979091 -86.88980103 219.07897949 C-86.89433214 218.36844335 -86.89886325 217.6579072 -86.90353167 216.92583966 C-86.91624422 214.53242415 -86.91455085 212.13923422 -86.91290283 209.74578857 C-86.91888438 208.03423773 -86.92568905 206.32268958 -86.93325806 204.61114502 C-86.95097716 199.94930075 -86.9556163 195.28752985 -86.95688963 190.62565517 C-86.95831004 187.70985334 -86.96257784 184.79407021 -86.96788406 181.87827301 C-86.98641358 171.69542761 -86.99455224 161.51263465 -86.99298096 151.32977295 C-86.99178322 141.85846126 -87.01280559 132.38737882 -87.04446828 122.91612506 C-87.07070794 114.77494579 -87.08134483 106.63384093 -87.08007014 98.49261975 C-87.07956216 93.63516275 -87.08515208 88.77790875 -87.10642624 83.92049408 C-87.12593482 79.34036846 -87.1258477 74.76063654 -87.11139297 70.18049622 C-87.10931835 68.50930957 -87.11392437 66.83809751 -87.12611389 65.16695404 C-87.24764102 47.33408125 -83.32801314 31.32367601 -70.74737549 17.84442139 C-50.16114203 -0.92537971 -26.3717537 -0.48109815 0 0 Z " fill="#939598" transform="translate(410.62237548828125,42.09307861328125)"/>
<path d="M0 0 C3.46992901 3.19871155 6.78034637 6.53589621 10.0603447 9.9265461 C11.68541915 11.6045934 13.32158332 13.27110036 14.96109009 14.93504333 C19.61525749 19.66187753 24.25193648 24.40558687 28.875 29.1628418 C31.71877408 32.08757264 34.57749464 34.99701362 37.44551468 37.89796257 C38.52524721 38.99613854 39.59928213 40.09995048 40.66706467 41.20974922 C49.55674409 50.44621555 58.5562173 56.93373045 71.7890625 57.24609375 C73.44808594 57.29540039 73.44808594 57.29540039 75.140625 57.34570312 C77.47124953 57.40710411 79.80198656 57.46436885 82.1328125 57.51757812 C83.23625 57.55173828 84.3396875 57.58589844 85.4765625 57.62109375 C86.9937085 57.65867798 86.9937085 57.65867798 88.54150391 57.69702148 C91 58 91 58 93 60 C93.3125 63.5 93.3125 63.5 93 67 C88.32429879 70.11713414 83.49968926 69.32835839 78 69.3125 C76.36998047 69.33666992 76.36998047 69.33666992 74.70703125 69.36132812 C55.12845893 69.37302381 44.22801384 61.27717606 30.82910156 47.89501953 C29.01402864 46.05983724 27.20128716 44.22234676 25.390625 42.3828125 C24.41083361 41.39350201 23.43057885 40.40465024 22.44989014 39.41622925 C18.33664043 35.26981246 14.22803565 31.11886861 10.12939453 26.95800781 C7.6021108 24.39297503 5.0674788 21.83540073 2.52806854 19.28237534 C1.10793653 17.85037321 -0.30400742 16.41026568 -1.71575928 14.97000122 C-2.58396301 14.0983432 -3.45216675 13.22668518 -4.34667969 12.32861328 C-5.10261414 11.56300079 -5.85854858 10.79738831 -6.63739014 10.00857544 C-10.07598014 7.08525427 -13.31565271 5.07323249 -17.875 4.875 C-25.98202676 7.79352964 -32.27402687 16.19760856 -38.15270042 22.23036194 C-40.68372295 24.8234414 -43.23119319 27.40032668 -45.77539062 29.98046875 C-48.9847154 33.23749042 -52.18928341 36.49883612 -55.37817383 39.77587891 C-57.98054592 42.44931917 -60.59803588 45.10714985 -63.2255497 47.75587463 C-64.21124288 48.75496631 -65.19156965 49.75938777 -66.16582298 50.76963806 C-77.47297452 62.48296957 -89.01389188 68.81806281 -105.3359375 69.30078125 C-107.3344496 69.31158933 -109.33301226 69.32218606 -111.33154297 69.31567383 C-113.3921208 69.31247341 -115.45131342 69.33618933 -117.51171875 69.36132812 C-119.46658203 69.36229492 -119.46658203 69.36229492 -121.4609375 69.36328125 C-122.64478027 69.36626221 -123.82862305 69.36924316 -125.04833984 69.37231445 C-128 69 -128 69 -129.92041016 67.66870117 C-131 66 -131 66 -130.8125 62.9375 C-130 60 -130 60 -128 58 C-125.28540039 57.74462891 -125.28540039 57.74462891 -121.84765625 57.7265625 C-120.59533203 57.7059375 -119.34300781 57.6853125 -118.05273438 57.6640625 C-115.42779686 57.63836561 -112.80277644 57.61993324 -110.17773438 57.609375 C-91.86898162 57.27326327 -82.48590201 49.84539642 -70.07775497 37.1975193 C-68.45927778 35.5485005 -66.83388914 33.90657584 -65.20657349 32.26628113 C-60.5865107 27.60675966 -55.97957988 22.93433038 -51.37548828 18.2590332 C-48.54563924 15.38637799 -45.7084398 12.52114587 -42.86685562 9.66010094 C-41.79148194 8.57420195 -40.71903026 7.48540078 -39.64965439 6.39359474 C-38.15460929 4.86720923 -36.65043435 3.35038236 -35.14404297 1.83520508 C-34.29325165 0.97171951 -33.44246033 0.10823395 -32.56588745 -0.78141785 C-22.01358957 -9.90541108 -10.27487822 -8.15917156 0 0 Z " fill="#939598" transform="translate(707,127)"/>
<path d="M0 0 C1.11826172 -0.00257812 2.23652344 -0.00515625 3.38867188 -0.0078125 C5.1434082 0.00378906 5.1434082 0.00378906 6.93359375 0.015625 C8.07634766 0.00789063 9.21910156 0.00015625 10.39648438 -0.0078125 C33.91194382 0.04596785 47.05256538 10.79854772 63.16125488 26.96813965 C64.06581421 27.88099731 64.97037354 28.79385498 65.90234375 29.734375 C66.86945282 30.70590399 67.83686624 31.67713009 68.80456543 32.64807129 C71.82962174 35.68439757 74.85063542 38.72472567 77.87109375 41.765625 C81.40312518 45.32131837 84.93682701 48.8753204 88.47471619 52.42518616 C89.88270106 53.83964204 91.28762577 55.25714195 92.69250488 56.67468262 C93.54098999 57.52647095 94.3894751 58.37825928 95.26367188 59.25585938 C96.38424988 60.3842926 96.38424988 60.3842926 97.52746582 61.53552246 C100.31594087 64.1522911 101.26343648 64.25782986 105.23852539 64.5456543 C112.74566812 63.57342222 117.539323 56.98555896 122.4921875 51.78515625 C123.64156592 50.61065172 124.7930589 49.43821317 125.94654846 48.26774597 C128.97346711 45.18776797 131.97731159 42.08633469 134.97497559 38.97790527 C139.76309182 34.01702032 144.5780684 29.08260913 149.40712166 24.1615963 C151.07762407 22.45067689 152.73350018 20.72654404 154.38829041 19.0004425 C164.59855627 8.46496491 174.74415288 1.31492629 189.7421875 0.90234375 C191.74733456 0.90332618 193.75257503 0.90459505 195.75756836 0.92944336 C197.82899941 0.95336061 199.89916606 0.94994497 201.97070312 0.94335938 C212.10381789 0.99834914 212.10381789 0.99834914 214.37109375 3.265625 C214.62109375 6.265625 214.62109375 6.265625 214.37109375 9.265625 C211.99167271 11.64504604 211.43012686 11.52935272 208.1875 11.609375 C206.92728027 11.65155151 206.92728027 11.65155151 205.64160156 11.69458008 C204.74795898 11.7180249 203.85431641 11.74146973 202.93359375 11.765625 C179.10152242 12.70257988 169.27864677 21.12432138 152.7265625 37.8828125 C151.7442978 38.87204697 150.76164918 39.86090034 149.77864075 40.84939575 C145.65538289 44.99679718 141.5381443 49.15013809 137.42504883 53.30761719 C134.8890695 55.87043158 132.34819397 58.42830741 129.80428505 60.98324966 C128.84355994 61.95015176 127.8847322 62.91894319 126.92790794 63.88970566 C125.59353052 65.24338633 124.25233983 66.59034054 122.91088867 67.93701172 C122.15273361 68.70262421 121.39457855 69.46823669 120.6134491 70.25704956 C115.64897701 74.70394364 111.18144734 76.37964296 104.62109375 76.578125 C103.821875 76.61550781 103.02265625 76.65289062 102.19921875 76.69140625 C92.38454463 75.21378266 86.25366524 67.63739412 79.6796875 60.89453125 C78.56549253 59.76777002 77.45024396 58.64204976 76.33399963 57.51731873 C73.41005849 54.56690308 70.49748782 51.60554116 67.58813477 48.64074707 C62.93175698 43.89780882 58.2617522 39.16838872 53.58500862 34.44553947 C51.96329984 32.80356366 50.34869478 31.15484379 48.73472595 29.50526428 C40.11956148 20.471587 40.11956148 20.471587 29.30859375 14.515625 C28.69886719 14.29390625 28.08914063 14.0721875 27.4609375 13.84375 C22.7377005 12.5371349 18.08718128 12.13726908 13.203125 12.0546875 C12.06294922 12.02632812 10.92277344 11.99796875 9.74804688 11.96875 C7.3601892 11.91641339 4.97213994 11.87221984 2.58398438 11.8359375 C1.44767578 11.805 0.31136719 11.7740625 -0.859375 11.7421875 C-1.89473389 11.72236816 -2.93009277 11.70254883 -3.99682617 11.68212891 C-6.62890625 11.265625 -6.62890625 11.265625 -8.49731445 9.92724609 C-9.62890625 8.265625 -9.62890625 8.265625 -9.50390625 5.203125 C-7.95379212 -0.00082956 -4.84502715 0.01082256 0 0 Z " fill="#939598" transform="translate(585.62890625,41.734375)"/>
<path d="M0 0 C1.47629883 -0.00386719 1.47629883 -0.00386719 2.98242188 -0.0078125 C4.00529297 -0.00007813 5.02816406 0.00765625 6.08203125 0.015625 C7.08556641 0.00789063 8.08910156 0.00015625 9.12304688 -0.0078125 C19.76514684 0.01988327 28.67535567 1.37007168 36.62109375 8.90234375 C43.77875702 16.74756581 44.33215298 23.8419159 44.2668457 34.14575195 C44.27049637 35.43103287 44.27414703 36.71631378 44.27790833 38.0405426 C44.28727327 41.54851601 44.27793177 45.05620828 44.2645762 48.56415963 C44.2532261 52.23875209 44.25737164 55.91333144 44.25932312 59.5879364 C44.26020442 65.75211157 44.24915554 71.9161764 44.23071289 78.08032227 C44.20950078 85.21104519 44.20604629 92.34160709 44.21227485 99.47235519 C44.21796256 106.33506354 44.2123329 113.19771511 44.2011013 120.06041527 C44.19645222 122.98104081 44.19558273 125.90163166 44.19768715 128.8222599 C44.1999148 132.89241658 44.18548543 136.96234611 44.16918945 141.0324707 C44.17166687 142.24858032 44.17414429 143.46468994 44.17669678 144.71765137 C44.16606956 146.37260368 44.16606956 146.37260368 44.15522766 148.06098938 C44.15317479 149.02346745 44.15112192 149.98594553 44.14900684 150.97758961 C43.89453125 153.265625 43.89453125 153.265625 41.89453125 155.265625 C38.95703125 155.640625 38.95703125 155.640625 35.89453125 155.265625 C32.95385889 152.28261283 32.5201344 150.07814787 32.52272034 145.96560669 C32.51596283 144.89176727 32.50920532 143.81792786 32.50224304 142.71154785 C32.50996231 141.53846069 32.51768158 140.36537354 32.52563477 139.15673828 C32.52186829 137.9173349 32.51810181 136.67793152 32.51422119 135.40097046 C32.50778085 132.70743088 32.50668539 130.01449589 32.5144062 127.32101822 C32.52599823 123.0595244 32.51381883 118.79830207 32.49778748 114.53683472 C32.46160711 103.9513716 32.45536182 93.36591484 32.45788574 82.78039551 C32.45959781 74.55473328 32.45244901 66.32929305 32.41790718 58.10369289 C32.40113217 53.87021049 32.40289118 49.63726984 32.4187299 45.40378976 C32.42590036 42.14690685 32.40728342 38.89014857 32.39282227 35.63330078 C32.40256577 34.46426208 32.41230927 33.29522339 32.42234802 32.09075928 C32.3669815 25.85029393 32.16659364 21.96401998 27.89453125 17.265625 C22.44007972 13.06115195 18.64315402 12.16710567 11.88671875 12.0546875 C10.73558594 12.02632812 9.58445312 11.99796875 8.3984375 11.96875 C5.97151279 11.91650189 3.54440248 11.87228083 1.1171875 11.8359375 C-0.03136719 11.805 -1.17992187 11.7740625 -2.36328125 11.7421875 C-3.41660645 11.72236816 -4.46993164 11.70254883 -5.55517578 11.68212891 C-6.39677246 11.54468262 -7.23836914 11.40723633 -8.10546875 11.265625 C-10.10546875 8.265625 -10.10546875 8.265625 -9.98046875 5.203125 C-9.10546875 2.265625 -9.10546875 2.265625 -7.36987305 1.09863281 C-4.77421861 0.1437678 -2.76329626 0.00704089 0 0 Z " fill="#929498" transform="translate(503.10546875,41.734375)"/>
<path d="M0 0 C2.502478 1.54242386 4.42003097 3.43871516 6.4375 5.5625 C6.97826172 6.07619141 7.51902344 6.58988281 8.07617188 7.11914062 C10.83661121 9.92843729 11.91111868 11.55259742 12.6953125 15.5 C11.7699079 20.15821644 9.80808381 22.23564625 6.4375 25.4375 C5.92380859 25.97826172 5.41011719 26.51902344 4.88085938 27.07617188 C2.07156271 29.83661121 0.44740258 30.91111868 -3.5 31.6953125 C-8.15821644 30.7699079 -10.23564625 28.80808381 -13.4375 25.4375 C-14.24864258 24.66696289 -14.24864258 24.66696289 -15.07617188 23.88085938 C-17.83661121 21.07156271 -18.91111868 19.44740258 -19.6953125 15.5 C-18.7699079 10.84178356 -16.80808381 8.76435375 -13.4375 5.5625 C-12.92380859 5.02173828 -12.41011719 4.48097656 -11.88085938 3.92382812 C-8.0961839 0.20497309 -5.46390155 -1.08546259 0 0 Z " fill="#32BBAD" transform="translate(545,0)"/>
<path d="M0 0 C3.5578125 -0.0928125 3.5578125 -0.0928125 7.1875 -0.1875 C8.29387817 -0.22846802 8.29387817 -0.22846802 9.42260742 -0.27026367 C13.80397443 -0.32528962 16.57501275 0.22707763 20 3 C20.3125 5.5 20.3125 5.5 20 8 C20 8.99 20 9.98 20 11 C20.33 11.33 20.66 11.66 21 12 C20.71269945 14.33944736 20.38063221 16.6739143 20 19 C13.1772779 21.09929911 7.13755375 21.16221713 0 21 C0 14.07 0 7.14 0 0 Z M6 4 C6 5.32 6 6.64 6 8 C8.64 8 11.28 8 14 8 C13.67 6.68 13.34 5.36 13 4 C10.69 4 8.38 4 6 4 Z M6 12 C6 13.32 6 14.64 6 16 C8.97 16 11.94 16 15 16 C15 15.01 15 14.02 15 13 C12.04335481 11.5216774 9.25770263 11.93967217 6 12 Z " fill="#939598" transform="translate(561,244)"/>
<path d="M0 0 C1.76923828 0.01353516 1.76923828 0.01353516 3.57421875 0.02734375 C4.47785156 0.03894531 5.38148438 0.05054688 6.3125 0.0625 C6.3125 1.7125 6.3125 3.3625 6.3125 5.0625 C5.70921875 5.03929687 5.1059375 5.01609375 4.484375 4.9921875 C3.68515625 4.97414062 2.8859375 4.95609375 2.0625 4.9375 C0.87914062 4.90269531 0.87914062 4.90269531 -0.328125 4.8671875 C-2.89481941 5.0796622 -4.4791067 5.77595895 -6.6875 7.0625 C-6.72991723 9.39544775 -6.72842937 11.72952567 -6.6875 14.0625 C-5.57623341 15.40151792 -5.57623341 15.40151792 -2.74609375 15.16015625 C-1.55113281 15.14855469 -0.35617187 15.13695312 0.875 15.125 C2.07253906 15.11597656 3.27007813 15.10695313 4.50390625 15.09765625 C5.89416016 15.08025391 5.89416016 15.08025391 7.3125 15.0625 C7.3125 16.7125 7.3125 18.3625 7.3125 20.0625 C1.69429161 21.51236023 -4.19032896 22.07199468 -9.625 19.875 C-12.17241235 17.63636491 -12.94947964 16.38359161 -13.6875 13.0625 C-13.67975488 9.17445005 -13.23379561 6.03093313 -11.3125 2.625 C-8.00979301 -0.5506798 -4.32657831 -0.04283741 0 0 Z " fill="#939598" transform="translate(690.6875,243.9375)"/>
<path d="M0 0 C2.10353495 -0.0810206 4.20795952 -0.13919907 6.3125 -0.1875 C7.48425781 -0.22230469 8.65601563 -0.25710937 9.86328125 -0.29296875 C13 0 13 0 14.90625 1.09375 C16.55536617 3.9679239 16.28485023 6.41004236 16.1875 9.6875 C16.16042969 10.86699219 16.13335938 12.04648437 16.10546875 13.26171875 C16.07066406 14.16535156 16.03585937 15.06898438 16 16 C13.5622037 16.05397335 11.12560315 16.09365616 8.6875 16.125 C7.65206055 16.15013672 7.65206055 16.15013672 6.59570312 16.17578125 C2.82864604 16.21217794 1.21568296 16.14378864 -2 14 C-2.375 11 -2.375 11 -2 8 C2.06725434 5.2884971 5.1547611 5.42132512 10 5 C6.7 4.67 3.4 4.34 0 4 C0 2.68 0 1.36 0 0 Z M4 9 C3.67 9.99 3.34 10.98 3 12 C5.31 12 7.62 12 10 12 C10.33 11.01 10.66 10.02 11 9 C8.69 9 6.38 9 4 9 Z " fill="#939598" transform="translate(587,249)"/>
<path d="M0 0 C1.91541138 -0.10841951 3.83259773 -0.18578079 5.75 -0.25 C7.35101562 -0.31960937 7.35101562 -0.31960937 8.984375 -0.390625 C12 0 12 0 14.375 1.625 C16.47563909 4.69516482 16.41020363 6.56531658 16.25 10.25 C16.21390625 11.32765625 16.1778125 12.4053125 16.140625 13.515625 C16.07101562 14.74539063 16.07101562 14.74539063 16 16 C13.5622037 16.05397335 11.12560315 16.09365616 8.6875 16.125 C7.65206055 16.15013672 7.65206055 16.15013672 6.59570312 16.17578125 C2.82864604 16.21217794 1.21568296 16.14378864 -2 14 C-2.375 11 -2.375 11 -2 8 C2.06725434 5.2884971 5.1547611 5.42132512 10 5 C6.7 4.67 3.4 4.34 0 4 C0 2.68 0 1.36 0 0 Z M4 9 C3.67 9.99 3.34 10.98 3 12 C5.31 12 7.62 12 10 12 C10.33 11.01 10.66 10.02 11 9 C8.69 9 6.38 9 4 9 Z " fill="#929598" transform="translate(773,249)"/>
<path d="M0 0 C2.625 1.6875 2.625 1.6875 4 4 C4 5.65 4 7.3 4 9 C-0.29 9 -4.58 9 -9 9 C-9 9.66 -9 10.32 -9 11 C-4.71 11 -0.42 11 4 11 C4 12.32 4 13.64 4 15 C0.95853012 15.8730145 -1.83785259 16.19215584 -5 16.25 C-5.845625 16.27578125 -6.69125 16.3015625 -7.5625 16.328125 C-10.58864283 15.92075962 -11.89183197 15.20399385 -14 13 C-14.53125 10.625 -14.53125 10.625 -14.5 8 C-14.5103125 7.13375 -14.520625 6.2675 -14.53125 5.375 C-14 3 -14 3 -12.28125 1.21484375 C-8.32028456 -0.89450599 -4.3632533 -0.65231362 0 0 Z M-7.625 4.5 C-8.07875 4.995 -8.5325 5.49 -9 6 C-6.36 6 -3.72 6 -1 6 C-2.37485532 4.45833358 -2.37485532 4.45833358 -4 3 C-6.12364481 2.77390663 -6.12364481 2.77390663 -7.625 4.5 Z " fill="#939598" transform="translate(714,249)"/>
<path d="M0 0 C2.6875 1.5 2.6875 1.5 4 4 C4.60946647 7.60600996 4.82663397 10.83519758 2.625 13.9375 C-1.66238924 16.74079296 -6.00351312 16.6902525 -11 16 C-14.56781839 13.57388349 -15.7463865 12.2173448 -16.625 8 C-14.78170821 -0.84780059 -7.66801058 -1.23867863 0 0 Z M-11 6 C-10.67958603 8.60280568 -10.67958603 8.60280568 -10 11 C-6.59679066 11.67673447 -6.59679066 11.67673447 -3 12 C-2.34 11.34 -1.68 10.68 -1 10 C-1.28983269 6.69316534 -1.28983269 6.69316534 -3 4 C-7.49885769 3.53277305 -7.49885769 3.53277305 -11 6 Z " fill="#949598" transform="translate(661,249)"/>
<path d="M0 0 C2.60478883 -0.0809313 5.20706653 -0.14045434 7.8125 -0.1875 C8.55048828 -0.21263672 9.28847656 -0.23777344 10.04882812 -0.26367188 C15.3853917 -0.33611391 15.3853917 -0.33611391 18 1.09375 C19.5142537 3.98029612 19.28340738 6.45861829 19.1875 9.6875 C19.16042969 10.86699219 19.13335938 12.04648437 19.10546875 13.26171875 C19.07066406 14.16535156 19.03585937 15.06898438 19 16 C17.35 16 15.7 16 14 16 C13.67 12.37 13.34 8.74 13 5 C10.36 5 7.72 5 5 5 C5 8.63 5 12.26 5 16 C3.35 15.67 1.7 15.34 0 15 C0 10.05 0 5.1 0 0 Z " fill="#929496" transform="translate(721,249)"/>
<path d="M0 0 C2.578125 -0.103125 5.15625 -0.20625 7.8125 -0.3125 C8.62050049 -0.35802002 9.42850098 -0.40354004 10.26098633 -0.45043945 C12.20703125 -0.48828125 12.20703125 -0.48828125 16 0 C19.12610886 3.37033611 19.34927995 6.336588 19.1875 10.8125 C19.16042969 11.78832031 19.13335938 12.76414062 19.10546875 13.76953125 C19.07066406 14.50558594 19.03585937 15.24164063 19 16 C17.35 16 15.7 16 14 16 C13.93941406 15.37351562 13.87882813 14.74703125 13.81640625 14.1015625 C13.69072266 12.87566406 13.69072266 12.87566406 13.5625 11.625 C13.48128906 10.81289063 13.40007813 10.00078125 13.31640625 9.1640625 C13.10909886 6.95727195 13.10909886 6.95727195 12 5 C9.69 5 7.38 5 5 5 C5 8.63 5 12.26 5 16 C3.35 16 1.7 16 0 16 C0 10.72 0 5.44 0 0 Z " fill="#939598" transform="translate(607,249)"/>
<path d="M0 0 C1.890625 0.24609375 1.890625 0.24609375 4 1 C5.046875 2.84765625 5.046875 2.84765625 5.75 5.0625 C5.99234375 5.79597656 6.2346875 6.52945313 6.484375 7.28515625 C6.65453125 7.85105469 6.8246875 8.41695313 7 9 C9.32472205 6.14693203 10.7508258 3.45925163 12 0 C13.890625 0.21484375 13.890625 0.21484375 16 1 C17.046875 3.06640625 17.046875 3.06640625 17.75 5.5625 C17.99234375 6.38878906 18.2346875 7.21507812 18.484375 8.06640625 C18.65453125 8.70449219 18.8246875 9.34257812 19 10 C19.66 10 20.32 10 21 10 C21.99 6.7 22.98 3.4 24 0 C24.99 0 25.98 0 27 0 C26.37321829 3.66172475 25.35548154 6.8818995 23.9375 10.3125 C23.57527344 11.19550781 23.21304687 12.07851563 22.83984375 12.98828125 C22.42412109 13.98408203 22.42412109 13.98408203 22 15 C20.68 15 19.36 15 18 15 C16.68 12.03 15.36 9.06 14 6 C12.35 9.3 10.7 12.6 9 16 C8.01 16 7.02 16 6 16 C4.9955866 13.7101766 3.99632388 11.4183401 3 9.125 C2.71382813 8.47402344 2.42765625 7.82304687 2.1328125 7.15234375 C0 2.2265625 0 2.2265625 0 0 Z " fill="#95979A" transform="translate(401,249)"/>
<path d="M0 0 C0.99 0 1.98 0 3 0 C3 2.31 3 4.62 3 7 C3.66 6.67 4.32 6.34 5 6 C7.05859375 5.83203125 7.05859375 5.83203125 9.4375 5.8125 C10.21996094 5.79832031 11.00242187 5.78414062 11.80859375 5.76953125 C14 6 14 6 17 8 C18.01400881 12.41818124 18.52863894 14.7576985 16.75 18.9375 C15 21 15 21 12 22 C7.99616868 22.13399703 4.0072645 22.04308887 0 22 C0 14.74 0 7.48 0 0 Z M3 9 C3 12.3 3 15.6 3 19 C4.423125 19.061875 5.84625 19.12375 7.3125 19.1875 C8.11300781 19.22230469 8.91351562 19.25710938 9.73828125 19.29296875 C12.06641185 19.18380515 12.06641185 19.18380515 13.765625 17.64453125 C15.19485163 15.99927562 15.19485163 15.99927562 15.4375 13.5 C15.22546263 10.87829008 15.22546263 10.87829008 13.1875 9.1875 C9.67091701 7.2784978 6.75437555 8.18824312 3 9 Z " fill="#939699" transform="translate(513,243)"/>
<path d="M0 0 C0.99 0 1.98 0 3 0 C3 7.26 3 14.52 3 22 C-10.49466919 22.37141291 -10.49466919 22.37141291 -12.88671875 20.61328125 C-15.17410547 17.29857698 -15.47344006 15.02424054 -15 11 C-13.125 8.125 -13.125 8.125 -10 6 C-6.62352309 5.5927608 -3.3825236 5.70443969 0 6 C0 4.02 0 2.04 0 0 Z M-9.9375 9.0625 C-12.3090939 10.8861233 -12.3090939 10.8861233 -12.4375 14.0625 C-12.28056299 17.11625538 -12.28056299 17.11625538 -10 19 C-7.82462316 19.28042984 -7.82462316 19.28042984 -5.4375 19.1875 C-4.63183594 19.18105469 -3.82617188 19.17460937 -2.99609375 19.16796875 C-1.00120115 19.21630912 -1.00120115 19.21630912 0 18 C0.07179964 16.48071962 0.08392007 14.95832518 0.0625 13.4375 C0.05347656 12.61121094 0.04445313 11.78492188 0.03515625 10.93359375 C0.02355469 10.29550781 0.01195312 9.65742188 0 9 C-3.78571484 8.18347327 -6.25290336 7.72977356 -9.9375 9.0625 Z " fill="#939598" transform="translate(496,243)"/>
<path d="M0 0 C2.66615752 0.59913652 3.51906795 1.22765173 5.0859375 3.46875 C5.4159375 5.44875 5.7459375 7.42875 6.0859375 9.46875 C1.1359375 9.46875 -3.8140625 9.46875 -8.9140625 9.46875 C-7.9240625 10.95375 -7.9240625 10.95375 -6.9140625 12.46875 C-4.02810304 13.05356121 -4.02810304 13.05356121 -0.7890625 13.15625 C0.30664062 13.22199219 1.40234375 13.28773438 2.53125 13.35546875 C3.79582031 13.41154297 3.79582031 13.41154297 5.0859375 13.46875 C5.0859375 14.12875 5.0859375 14.78875 5.0859375 15.46875 C1.01798918 16.82473277 -2.66513434 17.12357606 -6.9140625 16.46875 C-10.41774759 14.03762157 -11.66851466 12.64737962 -12.5390625 8.46875 C-11.04805013 1.31189061 -6.5765337 -0.08978203 0 0 Z M-4.9140625 2.46875 C-6.2340625 3.78875 -7.5540625 5.10875 -8.9140625 6.46875 C-4.9540625 6.46875 -0.9940625 6.46875 3.0859375 6.46875 C1.7659375 5.14875 0.4459375 3.82875 -0.9140625 2.46875 C-2.2340625 2.46875 -3.5540625 2.46875 -4.9140625 2.46875 Z " fill="#949699" transform="translate(472.9140625,248.53125)"/>
<path d="M0 0 C2.5625 1.6875 2.5625 1.6875 4 4 C4 5.65 4 7.3 4 9 C-0.62 9 -5.24 9 -10 9 C-10 9.99 -10 10.98 -10 12 C-5.71 12.33 -1.42 12.66 3 13 C3 13.66 3 14.32 3 15 C-0.7058401 16.85292005 -4.95467167 16.45020589 -9 16 C-11.625 14.5 -11.625 14.5 -13 12 C-13.77074046 7.99870909 -13.60632244 5.05447381 -11.5625 1.5 C-7.75494165 -0.72881464 -4.30303884 -0.78165293 0 0 Z M-10 4 C-10 4.66 -10 5.32 -10 6 C-6.37 6 -2.74 6 1 6 C0.67 5.01 0.34 4.02 0 3 C-4.07775191 2.0732382 -6.42181037 1.66041447 -10 4 Z " fill="#939598" transform="translate(443,249)"/>
<path d="M0 0 C0.98484375 0.02707031 1.9696875 0.05414063 2.984375 0.08203125 C3.73203125 0.11683594 4.4796875 0.15164062 5.25 0.1875 C5.25 1.5075 5.25 2.8275 5.25 4.1875 C0.795 4.6825 0.795 4.6825 -3.75 5.1875 C-4.08 7.1675 -4.41 9.1475 -4.75 11.1875 C-1.45 11.1875 1.85 11.1875 5.25 11.1875 C5.25 12.5075 5.25 13.8275 5.25 15.1875 C1.51859611 16.4313013 -1.88000159 16.83375216 -5.75 16.1875 C-8.8125 14.1875 -8.8125 14.1875 -10.75 11.1875 C-11.06270086 8.31735284 -10.8720412 5.85583678 -9.75 3.1875 C-6.65793188 0.05297785 -4.30217842 -0.15364923 0 0 Z " fill="#949699" transform="translate(638.75,248.8125)"/>
<path d="M0 0 C1.65 0 3.3 0 5 0 C5 1.32 5 2.64 5 4 C6.65 4 8.3 4 10 4 C10 5.32 10 6.64 10 8 C8.35 8 6.7 8 5 8 C5.33 10.31 5.66 12.62 6 15 C7.65 15.33 9.3 15.66 11 16 C10.67 17.32 10.34 18.64 10 20 C3.51747312 20.36693548 3.51747312 20.36693548 1.28125 18.78125 C-0.3746715 16.47911524 -0.3094704 15.11781917 -0.1875 12.3125 C-0.16042969 11.50425781 -0.13335938 10.69601563 -0.10546875 9.86328125 C-0.07066406 9.24839844 -0.03585937 8.63351563 0 8 C-0.99 8 -1.98 8 -3 8 C-3 6.68 -3 5.36 -3 4 C-2.01 4 -1.02 4 0 4 C0 2.68 0 1.36 0 0 Z " fill="#929597" transform="translate(745,245)"/>
<path d="M0 0 C13.42184621 -0.36940861 13.42184621 -0.36940861 15.92578125 1.23046875 C17.27737695 3.45691548 17.4009596 4.90403988 17.375 7.5 C17.38273437 8.2734375 17.39046875 9.046875 17.3984375 9.84375 C16.90944554 12.49005943 16.07463075 13.3402954 14 15 C11.75487738 16.12256131 10.48543351 16.13413762 8 16.125 C6.948125 16.12886719 6.948125 16.12886719 5.875 16.1328125 C4 16 4 16 2 15 C2 16.98 2 18.96 2 21 C1.34 21 0.68 21 0 21 C0 14.07 0 7.14 0 0 Z M2 4 C1.979375 5.299375 1.95875 6.59875 1.9375 7.9375 C1.92589844 8.66839844 1.91429687 9.39929688 1.90234375 10.15234375 C1.79438816 12.01732141 1.79438816 12.01732141 3 13 C7.11490775 13.50001867 10.77826215 13.90757669 14.1875 11.375 C15.32707847 8.04392448 14.36274639 6.15583374 13 3 C8.70700357 1.73735399 6.12168689 2.37049588 2 4 Z " fill="#95979A" transform="translate(361,249)"/>
<path d="M0 0 C3.56781839 2.42611651 4.7463865 3.7826552 5.625 8 C4.75445216 12.17862962 3.50368509 13.56887157 0 16 C-4.51783149 16.93951288 -7.92844478 16.52484337 -12.0625 14.5 C-14.41881305 11.45959607 -14.69081869 9.6775322 -14.40234375 5.90625 C-14 4 -14 4 -12.625 1.5 C-8.51279147 -0.84983345 -4.61110579 -0.85666747 0 0 Z M-9.25 3.125 C-11.29891329 4.95163458 -11.29891329 4.95163458 -11.375 8.0625 C-11.28930236 11.11861241 -11.28930236 11.11861241 -9 13 C-6.8601368 13.318384 -6.8601368 13.318384 -4.5 13.25 C-3.30890625 13.25773437 -3.30890625 13.25773437 -2.09375 13.265625 C0.21892751 13.18939909 0.21892751 13.18939909 2 11 C2.58345476 8.04253508 2.58345476 8.04253508 2 5 C-1.61159913 1.99033406 -4.81831574 0.90915787 -9.25 3.125 Z " fill="#929497" transform="translate(395,249)"/>
<path d="M0 0 C0.99 0 1.98 0 3 0 C4.65 3.3 6.3 6.6 8 10 C10.48724903 6.68366796 12.23109915 3.70626844 14 0 C14.99 0 15.98 0 17 0 C15.618047 4.56044489 13.77496454 8.56637877 11.5 12.75 C10.8915625 13.87921875 10.283125 15.0084375 9.65625 16.171875 C8 19 8 19 6 21 C2.875 21.125 2.875 21.125 0 21 C0 20.34 0 19.68 0 19 C0.804375 18.731875 1.60875 18.46375 2.4375 18.1875 C3.283125 17.795625 4.12875 17.40375 5 17 C6.37450318 14.02442512 6.37450318 14.02442512 4.78515625 11.40625 C4.21667969 10.4471875 3.64820313 9.488125 3.0625 8.5 C0 3.30979499 0 3.30979499 0 0 Z " fill="#929497" transform="translate(532,249)"/>
<path d="M0 0 C1.65 0 3.3 0 5 0 C5 7.26 5 14.52 5 22 C3.35 22 1.7 22 0 22 C0 14.74 0 7.48 0 0 Z " fill="#939597" transform="translate(793,243)"/>
<path d="M0 0 C3.96 0 7.92 0 12 0 C12 1.32 12 2.64 12 4 C9.69 4.33 7.38 4.66 5 5 C5 8.63 5 12.26 5 16 C3.35 16 1.7 16 0 16 C0 10.72 0 5.44 0 0 Z " fill="#929598" transform="translate(758,249)"/>
<path d="M0 0 C3.3 0 6.6 0 10 0 C10 0.66 10 1.32 10 2 C7.69 2.33 5.38 2.66 3 3 C3 7.29 3 11.58 3 16 C2.01 16 1.02 16 0 16 C0 10.72 0 5.44 0 0 Z " fill="#939597" transform="translate(451,249)"/>
</svg>
